<?xml version="1.0" encoding="UTF-8"?>
<svg xmlns="http://www.w3.org/2000/svg" xmlns:xlink="http://www.w3.org/1999/xlink" width="20px" height="20px" viewBox="0 0 20 20" version="1.1">
<g id="surface1">
<path style=" stroke:none;fill-rule:nonzero;fill:rgb(0%,0%,0%);fill-opacity:1;" d="M 16.542969 20 L 3.457031 20 C 2.378906 20 1.503906 19.125 1.503906 18.046875 L 1.503906 1.953125 C 1.503906 0.875 2.378906 0 3.457031 0 L 13.125 0 C 13.730469 0.00390625 14.296875 0.285156 14.667969 0.761719 L 18.085938 5.195312 C 18.347656 5.535156 18.492188 5.957031 18.496094 6.386719 L 18.496094 18.046875 C 18.496094 19.125 17.621094 20 16.542969 20 Z M 3.457031 1.5625 C 3.242188 1.5625 3.066406 1.738281 3.066406 1.953125 L 3.066406 18.046875 C 3.066406 18.261719 3.242188 18.4375 3.457031 18.4375 L 16.542969 18.4375 C 16.757812 18.4375 16.933594 18.261719 16.933594 18.046875 L 16.933594 6.386719 C 16.933594 6.300781 16.90625 6.21875 16.855469 6.152344 L 13.417969 1.71875 C 13.34375 1.621094 13.226562 1.5625 13.105469 1.5625 Z M 3.457031 1.5625 "/>
<path style=" stroke:none;fill-rule:nonzero;fill:rgb(0%,0%,0%);fill-opacity:1;" d="M 13.164062 6.816406 L 5.585938 6.816406 C 4.507812 6.816406 3.632812 5.941406 3.632812 4.863281 L 3.632812 0.78125 C 3.632812 0.351562 3.984375 0 4.414062 0 C 4.84375 0 5.195312 0.351562 5.195312 0.78125 L 5.195312 4.863281 C 5.195312 5.078125 5.371094 5.253906 5.585938 5.253906 L 13.164062 5.253906 C 13.378906 5.253906 13.554688 5.078125 13.554688 4.863281 L 13.554688 1.875 C 13.554688 1.445312 13.90625 1.09375 14.335938 1.09375 C 14.765625 1.09375 15.117188 1.445312 15.117188 1.875 L 15.117188 4.863281 C 15.117188 5.941406 14.242188 6.816406 13.164062 6.816406 Z M 11.679688 11.035156 L 4.375 11.035156 C 3.945312 11.035156 3.59375 10.683594 3.59375 10.253906 C 3.59375 9.824219 3.945312 9.472656 4.375 9.472656 L 11.679688 9.472656 C 12.109375 9.472656 12.460938 9.824219 12.460938 10.253906 C 12.460938 10.683594 12.109375 11.035156 11.679688 11.035156 Z M 15.585938 11.035156 L 14.023438 11.035156 C 13.59375 11.035156 13.242188 10.683594 13.242188 10.253906 C 13.242188 9.824219 13.59375 9.472656 14.023438 9.472656 L 15.585938 9.472656 C 16.015625 9.472656 16.367188 9.824219 16.367188 10.253906 C 16.367188 10.683594 16.015625 11.035156 15.585938 11.035156 Z M 6.015625 14.023438 L 4.375 14.023438 C 3.945312 14.023438 3.59375 13.671875 3.59375 13.242188 C 3.59375 12.8125 3.945312 12.460938 4.375 12.460938 L 6.015625 12.460938 C 6.445312 12.460938 6.796875 12.8125 6.796875 13.242188 C 6.796875 13.671875 6.445312 14.023438 6.015625 14.023438 Z M 15.585938 14.023438 L 8.359375 14.023438 C 7.929688 14.023438 7.578125 13.671875 7.578125 13.242188 C 7.578125 12.8125 7.929688 12.460938 8.359375 12.460938 L 15.585938 12.460938 C 16.015625 12.460938 16.367188 12.8125 16.367188 13.242188 C 16.367188 13.671875 16.015625 14.023438 15.585938 14.023438 Z M 10.117188 17.011719 L 4.375 17.011719 C 3.945312 17.011719 3.59375 16.660156 3.59375 16.230469 C 3.59375 15.800781 3.945312 15.449219 4.375 15.449219 L 10.117188 15.449219 C 10.546875 15.449219 10.898438 15.800781 10.898438 16.230469 C 10.898438 16.660156 10.546875 17.011719 10.117188 17.011719 Z M 15.585938 17.011719 L 12.460938 17.011719 C 12.03125 17.011719 11.679688 16.660156 11.679688 16.230469 C 11.679688 15.800781 12.03125 15.449219 12.460938 15.449219 L 15.585938 15.449219 C 16.015625 15.449219 16.367188 15.800781 16.367188 16.230469 C 16.367188 16.660156 16.015625 17.011719 15.585938 17.011719 Z M 15.585938 17.011719 "/>
<path style=" stroke:none;fill-rule:nonzero;fill:rgb(0%,0%,0%);fill-opacity:1;" d="M 7.929688 4.785156 L 6.601562 4.785156 C 6.171875 4.785156 5.820312 4.433594 5.820312 4.003906 C 5.820312 3.574219 6.171875 3.222656 6.601562 3.222656 L 7.929688 3.222656 C 8.359375 3.222656 8.710938 3.574219 8.710938 4.003906 C 8.710938 4.433594 8.359375 4.785156 7.929688 4.785156 Z M 7.929688 4.785156 "/>
</g>
</svg>
