<?xml version="1.0" encoding="UTF-8"?>
<svg xmlns="http://www.w3.org/2000/svg" xmlns:xlink="http://www.w3.org/1999/xlink" width="20px" height="20px" viewBox="0 0 20 20" version="1.1">
<g id="surface1">
<path style=" stroke:none;fill-rule:nonzero;fill:rgb(255%,255%,255%);fill-opacity:1;" d="M 5.625 8.125 C 4.933594 8.125 4.375 8.679688 4.375 9.339844 C 4.375 10.066406 4.933594 10.625 5.625 10.625 C 6.316406 10.625 6.839844 10.070312 6.839844 9.375 C 6.839844 8.679688 6.320312 8.125 5.625 8.125 Z M 10 8.089844 C 9.304688 8.089844 8.785156 8.648438 8.785156 9.339844 C 8.785156 10.03125 9.34375 10.554688 10 10.554688 C 10.65625 10.554688 11.214844 10 11.214844 9.339844 C 11.214844 8.679688 10.695312 8.089844 10 8.089844 Z M 14.375 8.125 C 13.679688 8.125 13.160156 8.679688 13.160156 9.375 C 13.160156 10.070312 13.71875 10.625 14.375 10.625 C 15.070312 10.625 15.625 10.070312 15.625 9.375 C 15.625 8.679688 15.070312 8.125 14.375 8.125 Z M 10 1.214844 C 4.476562 1.214844 0.0351562 4.851562 0.0351562 9.339844 C 0.0351562 11.199219 0.8125 12.90625 2.101562 14.273438 C 1.519531 15.816406 0.308594 17.121094 0.289062 17.132812 C 0.03125 17.40625 -0.0351562 17.808594 0.109375 18.148438 C 0.226562 18.523438 0.5625 18.75 0.9375 18.75 C 3.339844 18.75 5.199219 17.742188 6.371094 16.945312 C 7.5 17.296875 8.722656 17.5 10 17.5 C 15.523438 17.5 19.964844 13.863281 19.964844 9.410156 C 19.964844 4.957031 15.523438 1.214844 10 1.214844 Z M 10 15.625 C 8.953125 15.625 7.925781 15.464844 6.9375 15.152344 L 6.050781 14.875 L 5.289062 15.410156 C 4.734375 15.804688 3.964844 16.246094 3.042969 16.542969 C 3.332031 16.070312 3.605469 15.539062 3.820312 14.96875 L 4.234375 13.875 L 3.429688 13.023438 C 2.726562 12.269531 1.878906 11.023438 1.878906 9.375 C 1.878906 5.929688 5.519531 3.125 9.96875 3.125 C 14.414062 3.125 18.058594 5.929688 18.058594 9.375 C 18.058594 12.820312 14.484375 15.625 10 15.625 Z M 10 15.625 "/>
</g>
</svg>
