<?xml version="1.0" encoding="UTF-8"?>
<svg xmlns="http://www.w3.org/2000/svg" xmlns:xlink="http://www.w3.org/1999/xlink" width="20px" height="20px" viewBox="0 0 20 20" version="1.1">
<g id="surface1">
<path style=" stroke:none;fill-rule:nonzero;fill:rgb(94.509804%,76.862745%,5.882353%);fill-opacity:1;" d="M 4.167969 7.5 C 3.246094 7.5 2.5 8.25 2.5 9.167969 L 2.5 15.832031 C 2.5 16.75 3.246094 17.5 4.167969 17.5 L 15.832031 17.5 C 16.753906 17.5 17.5 16.75 17.5 15.832031 L 17.5 9.167969 C 17.5 8.25 16.753906 7.5 15.832031 7.5 Z M 4.167969 7.5 "/>
<path style=" stroke:none;fill-rule:nonzero;fill:rgb(95.294118%,61.176471%,7.058824%);fill-opacity:1;" d="M 4.167969 10 C 3.246094 10 2.5 10.75 2.5 11.667969 L 2.5 18.332031 C 2.5 19.25 3.246094 20 4.167969 20 L 15.832031 20 C 16.753906 20 17.5 19.25 17.5 18.332031 L 17.5 11.667969 C 17.5 10.75 16.753906 10 15.832031 10 Z M 4.167969 10 "/>
<path style=" stroke:none;fill-rule:nonzero;fill:rgb(74.117647%,76.470588%,78.039216%);fill-opacity:1;" d="M 10 0.832031 C 6.777344 0.832031 4.167969 3.417969 4.167969 6.667969 L 6.667969 6.667969 C 6.667969 4.832031 8.160156 3.332031 10 3.332031 C 11.839844 3.332031 13.332031 4.832031 13.332031 6.667969 L 15.832031 6.667969 C 15.832031 3.417969 13.222656 0.832031 10 0.832031 Z M 10 0.832031 "/>
<path style=" stroke:none;fill-rule:nonzero;fill:rgb(90.196078%,49.411765%,13.333333%);fill-opacity:1;" d="M 4.167969 11.667969 L 4.167969 12.5 L 15.832031 12.5 L 15.832031 11.667969 Z M 4.167969 13.332031 L 4.167969 14.167969 L 15.832031 14.167969 L 15.832031 13.332031 Z M 4.167969 15 L 4.167969 15.832031 L 15.832031 15.832031 L 15.832031 15 Z M 4.167969 16.667969 L 4.167969 17.5 L 15.832031 17.5 L 15.832031 16.667969 Z M 4.167969 16.667969 "/>
<path style=" stroke:none;fill-rule:nonzero;fill:rgb(49.803922%,54.901961%,55.294118%);fill-opacity:1;" d="M 4.167969 7.5 L 4.167969 8.332031 C 4.167969 8.75 4.726562 9.167969 5.417969 9.167969 C 6.105469 9.167969 6.667969 8.75 6.667969 8.332031 L 6.667969 7.5 C 6.667969 7.917969 6.105469 8.332031 5.417969 8.332031 C 4.726562 8.332031 4.167969 7.917969 4.167969 7.5 Z M 4.167969 7.5 "/>
<path style=" stroke:none;fill-rule:nonzero;fill:rgb(49.803922%,54.901961%,55.294118%);fill-opacity:1;" d="M 13.332031 7.5 L 13.332031 8.332031 C 13.332031 8.75 13.894531 9.167969 14.582031 9.167969 C 15.273438 9.167969 15.832031 8.75 15.832031 8.332031 L 15.832031 7.5 C 15.832031 7.917969 15.273438 8.332031 14.582031 8.332031 C 13.894531 8.332031 13.332031 7.917969 13.332031 7.5 Z M 13.332031 7.5 "/>
<path style=" stroke:none;fill-rule:nonzero;fill:rgb(58.431373%,64.705882%,65.098039%);fill-opacity:1;" d="M 10 2.03125 C 9.707031 2.03125 9.417969 2.058594 9.140625 2.109375 C 8.933594 2.148438 8.734375 2.203125 8.542969 2.265625 C 8.359375 2.324219 8.1875 2.394531 8.019531 2.472656 C 7.933594 2.515625 7.84375 2.558594 7.761719 2.605469 C 7.652344 2.664062 7.550781 2.746094 7.449219 2.8125 C 7.351562 2.875 7.25 2.925781 7.160156 2.996094 C 7.042969 3.085938 6.929688 3.179688 6.824219 3.28125 C 6.792969 3.3125 6.773438 3.355469 6.746094 3.386719 C 6.605469 3.53125 6.46875 3.664062 6.355469 3.828125 C 6.238281 3.996094 6.128906 4.167969 6.042969 4.347656 C 6.039062 4.355469 6.046875 4.367188 6.042969 4.375 C 5.949219 4.570312 5.863281 4.789062 5.808594 5 C 5.597656 5.488281 5.023438 5.832031 4.347656 5.832031 C 4.300781 5.832031 4.28125 5.835938 4.246094 5.832031 C 4.234375 5.832031 4.230469 5.835938 4.21875 5.832031 L 4.167969 6.667969 L 4.167969 8.332031 L 6.667969 8.332031 L 6.667969 6.667969 C 6.667969 6.4375 6.699219 6.207031 6.746094 5.988281 C 7.054688 4.46875 8.390625 3.332031 10 3.332031 C 11.839844 3.332031 13.332031 4.824219 13.332031 6.667969 L 13.332031 8.332031 L 15.832031 8.332031 L 15.832031 6.667969 L 15.78125 5.832031 C 15.769531 5.835938 15.765625 5.832031 15.753906 5.832031 L 15.652344 5.832031 C 14.976562 5.832031 14.402344 5.488281 14.191406 5 C 14.136719 4.789062 14.050781 4.570312 13.957031 4.375 C 13.953125 4.367188 13.960938 4.355469 13.957031 4.347656 C 13.871094 4.167969 13.761719 3.996094 13.644531 3.828125 C 13.53125 3.664062 13.394531 3.53125 13.253906 3.386719 C 13.226562 3.355469 13.210938 3.3125 13.175781 3.28125 C 13.070312 3.179688 12.957031 3.085938 12.839844 2.996094 C 12.75 2.925781 12.644531 2.875 12.550781 2.8125 C 12.449219 2.746094 12.347656 2.664062 12.238281 2.605469 C 12.15625 2.558594 12.066406 2.515625 11.980469 2.472656 C 11.8125 2.394531 11.640625 2.324219 11.457031 2.265625 C 11.265625 2.203125 11.066406 2.148438 10.859375 2.109375 C 10.582031 2.058594 10.292969 2.03125 10 2.03125 Z M 10 2.03125 "/>
</g>
</svg>
